<?xml version="1.0" encoding="utf-8"?>
<!-- Generator: Adobe Illustrator 23.0.2, SVG Export Plug-In . SVG Version: 6.00 Build 0)  -->
<svg version="1.1" id="图层_1" xmlns="http://www.w3.org/2000/svg" xmlns:xlink="http://www.w3.org/1999/xlink" x="0px" y="0px"
	 viewBox="0 0 456 74" style="enable-background:new 0 0 456 74;" xml:space="preserve">
<style type="text/css">
	.st0{fill:none;}
	.st1{fill:url(#SVGID_1_);}
	.st2{fill:url(#SVGID_2_);}
	.st3{fill:url(#SVGID_3_);}
	.st4{fill:#FFFFFF;}
</style>
<rect class="st0" width="456" height="74"/>
<rect y="0.4" class="st0" width="456" height="73"/>
<linearGradient id="SVGID_1_" gradientUnits="userSpaceOnUse" x1="-3.7815" y1="746.7657" x2="33.2666" y2="795.4575" gradientTransform="matrix(1 0 0 1 0 -758)">
	<stop  offset="0" style="stop-color:#934998"/>
	<stop  offset="1" style="stop-color:#604498"/>
</linearGradient>
<path class="st1" d="M41.3,27.6l-9.6,14.1c-2.6,3.9-8.4,3.7-10.8-0.2L4.8,16.6l0,0C3.9,15.1,2.2,14,0.2,14L0,13.8L7.9,8
	c4.8-2.8,10.8-1.4,13.9,3.2L30.2,24l0.2,0.2C32.9,27.4,37.3,28.7,41.3,27.6L41.3,27.6z"/>
<linearGradient id="SVGID_2_" gradientUnits="userSpaceOnUse" x1="60.2385" y1="823.6813" x2="47.8538" y2="783.9869" gradientTransform="matrix(1 0 0 1 0 -758)">
	<stop  offset="0.2654" style="stop-color:#EB6130"/>
	<stop  offset="1" style="stop-color:#F18F43"/>
</linearGradient>
<path class="st2" d="M69.1,8c-4.8-2.8-10.8-1.4-13.9,3.3L34,44l-0.2,0.2c-2,2.9-5.6,4.2-9,3.1l-2-0.8l10.7,16.7c2,3.1,6.5,3.1,8.5,0
	L75,12.5L69.1,8z"/>
<linearGradient id="SVGID_3_" gradientUnits="userSpaceOnUse" x1="84.1445" y1="816.2226" x2="71.7599" y2="776.5282" gradientTransform="matrix(1 0 0 1 0 -758)">
	<stop  offset="0.2654" style="stop-color:#EB6130"/>
	<stop  offset="1" style="stop-color:#F18F43"/>
</linearGradient>
<path class="st3" d="M93.4,8c-4.8-2.8-10.8-1.4-13.9,3.3L51.8,53.9l5.9,9.3c2,3.1,6.5,3.1,8.5,0l24-37l6.3-9.8
	c0.9-1.5,2.6-2.6,4.6-2.6h0.2L93.4,8z"/>
<g>
	<path class="st4" d="M173.9,10.3l-11,35.9l-9.9-32.3c-0.6-2.2-2.6-3.7-4.9-3.7s-4.3,1.4-4.9,3.7L133.1,46l-10.8-35.7h-8.8L129.1,61
		h8l11.2-35.6L159.4,61h8l15.6-50.7C183.1,10.3,173.9,10.3,173.9,10.3z"/>
	<path class="st4" d="M195.9,26.5h1.5c5.3,0,9.6,1.2,13,3.9c1.2,0.9,2,1.9,2.6,2.6c2.2,2.9,3.3,6.5,3.3,10.7v0.5
		c0,1.2-0.2,2.5-0.3,3.7h-30.5c0.8,2.2,2.2,3.7,4,4.8c1.9,1.1,4,1.5,6.2,1.5h18.7v6.9h-18.9c-4.3,0-8-0.8-11-2.3
		c-5.1-2.8-7.6-7.7-7.6-14.7v-0.3c0-4.6,1.4-8.5,4-11.6C184.6,28.4,189.4,26.5,195.9,26.5z M185.4,40.4H208c-0.8-2.2-2-3.9-3.7-4.9
		c-2-1.2-4.3-1.9-6.8-1.9h-1.5c-3.3,0-5.9,0.9-8,2.9c-0.9,0.9-1.5,1.9-1.9,2.5C185.9,39.2,185.5,39.6,185.4,40.4z"/>
	<path class="st4" d="M219.7,10.1h7.7v16.4h9.7c6.3,0,11.3,1.7,14.7,5.3c2.8,3.1,4.3,7,4.3,11.9V44c0,7.4-2.8,12.4-8.4,15.2
		c-2.8,1.4-6.3,2-10.2,2h-17.8v-51H219.7z M227.4,33.6V54h9.9c2.8,0,5.1-0.8,7.3-2.3c2.5-1.9,3.5-4.5,3.5-8c0-4.2-1.7-7.1-5.1-8.8
		c-1.7-0.9-3.7-1.4-5.9-1.4h-9.7L227.4,33.6L227.4,33.6z"/>
	<path class="st4" d="M259,10.1h18.4c8,0,13.3,2,15.8,6.2c1.4,2.2,2,4.9,2,8.4c0,4.2-1.2,7.4-3.7,9.9l0,0c4,2.2,5.9,6.2,5.9,11.9
		v0.3c0,4.5-1.5,7.9-4.5,10.5c-3.3,2.6-7.6,3.9-13.3,3.9h-20.7v-7h20.6c4.9,0,8-1.4,9.3-4c0.5-1.1,0.8-2.2,0.8-3.4
		c0-3.5-1.7-5.7-4.9-6.8c-1.4-0.5-3.3-0.6-5.3-0.6h-18.7v-7H277c4.9,0,8-1.2,9.3-3.7c0.6-1.1,0.8-2.3,0.8-3.5V25
		c0-4.9-3.4-7.4-10.2-7.4h-18.3v-7.4H259z"/>
	<path class="st4" d="M315.3,26.5h21.2V33h-20.6c-4.3,0-7,0.6-7.9,2c-0.3,0.5-0.5,0.9-0.5,1.4v0.3c0,1.4,0.9,2.3,2.9,2.9
		c1.2,0.5,2.8,0.6,4.8,0.6h5.9c7.7,0,12.8,1.9,15.2,5.7c0.8,1.4,1.1,2.8,1.1,4.3v0.3c0,4.6-2.6,7.7-7.7,9.4
		c-2.3,0.6-4.9,0.9-7.6,0.9h-20.9v-6.5h20.4c4.3,0,7.1-0.8,8-2.5c0.3-0.5,0.5-0.9,0.5-1.4v-0.3c0-1.4-1.2-2.5-3.9-2.9
		c-1.2-0.3-2.6-0.3-4-0.3h-4.9c-3.5,0-6.3-0.3-8.4-0.9c-1.1-0.3-2.2-0.6-2.9-1.1c-3.7-1.9-5.6-4.5-5.6-8.2v-0.3
		c0-3.9,1.9-6.6,5.7-8.4C308.5,27.1,311.6,26.5,315.3,26.5z"/>
	<path class="st4" d="M368.9,10.1h7.7V61h-17.8c-5.9,0-10.4-1.4-13.6-4.2c-3.4-2.9-4.9-7.3-4.9-13v-0.3c0-4,1.1-7.6,3.1-10.4
		c3.4-4.5,8.6-6.6,15.8-6.6h9.7L368.9,10.1L368.9,10.1z M348,43.8c0,4,1.7,7,4.9,8.8c1.9,0.9,3.9,1.4,5.9,1.4h9.9V33.6H359
		c-3.1,0-5.7,0.8-7.7,2.5C349.1,38,348,40.6,348,43.8z"/>
	<path class="st4" d="M380.8,10.1h7.7v26.1l0,0c5.9,0,10.7-1.2,14.7-3.5c4-2.5,6-5.9,6-10.2h8v0.2c-0.5,7.1-2.9,13-9,16.5
		c-0.3,0.3-0.8,0.5-1.2,0.6l0,0c-7,2.8-13.3,3.5-18.5,3.5V61h-7.7V10.1L380.8,10.1z"/>
	<path class="st4" d="M433.7,26.5h21.2V33h-20.6c-4.3,0-7,0.6-7.9,2c-0.3,0.5-0.5,0.9-0.5,1.4v0.3c0,1.4,0.9,2.3,2.9,2.9
		c1.2,0.5,2.8,0.6,4.8,0.6h5.9c7.7,0,12.8,1.9,15.2,5.7c0.8,1.4,1.1,2.8,1.1,4.3v0.3c0,4.6-2.6,7.7-7.7,9.4
		c-2.3,0.6-4.9,0.9-7.6,0.9h-20.9v-6.5H440c4.3,0,7.1-0.8,8-2.5c0.3-0.5,0.5-0.9,0.5-1.4v-0.3c0-1.4-1.2-2.5-3.9-2.9
		c-1.2-0.3-2.6-0.3-4-0.3h-4.9c-3.5,0-6.3-0.3-8.4-0.9c-1.1-0.3-2.2-0.6-2.9-1.1c-3.7-1.9-5.6-4.5-5.6-8.2v-0.3
		c0-3.9,1.9-6.6,5.7-8.4C426.9,27.1,430,26.5,433.7,26.5z"/>
	<polygon class="st4" points="397.5,39.2 387.8,39.2 407.4,61 417.1,61 	"/>
</g>
</svg>
